<?xml version="1.0" encoding="UTF-8" standalone="no"?>
<!-- Created with Inkscape (http://www.inkscape.org/) -->

<svg
   xmlns:dc="http://purl.org/dc/elements/1.1/"
   xmlns:cc="http://creativecommons.org/ns#"
   xmlns:rdf="http://www.w3.org/1999/02/22-rdf-syntax-ns#"
   xmlns:svg="http://www.w3.org/2000/svg"
   xmlns="http://www.w3.org/2000/svg"
   xmlns:sodipodi="http://sodipodi.sourceforge.net/DTD/sodipodi-0.dtd"
   xmlns:inkscape="http://www.inkscape.org/namespaces/inkscape"
   width="32"
   height="64"
   viewBox="0 0 8.466666 16.933333"
   version="1.1"
   id="svg8"
   inkscape:version="0.92.1 r15371"
   sodipodi:docname="login_icons.svg"
   inkscape:export-filename="/home/redhound/Рабочий стол/Projects/R7.Epsilon/R7.Epsilon/Skins/images/login_icons.png"
   inkscape:export-xdpi="96"
   inkscape:export-ydpi="96">
  <defs
     id="defs2">
    <filter
       style="color-interpolation-filters:sRGB"
       inkscape:label="Drop Shadow"
       id="filter15029">
      <feFlood
         flood-opacity="0.5"
         flood-color="rgb(0,0,0)"
         result="flood"
         id="feFlood15019" />
      <feComposite
         in="flood"
         in2="SourceGraphic"
         operator="in"
         result="composite1"
         id="feComposite15021" />
      <feGaussianBlur
         in="composite1"
         stdDeviation="0.20000000000000001"
         result="blur"
         id="feGaussianBlur15023" />
      <feOffset
         dx="0.20000000000000001"
         dy="0.20000000000000001"
         result="offset"
         id="feOffset15025" />
      <feComposite
         in="SourceGraphic"
         in2="offset"
         operator="over"
         result="composite2"
         id="feComposite15027" />
    </filter>
  </defs>
  <sodipodi:namedview
     id="base"
     pagecolor="#ffffff"
     bordercolor="#666666"
     borderopacity="1.0"
     inkscape:pageopacity="0.0"
     inkscape:pageshadow="2"
     inkscape:zoom="4"
     inkscape:cx="60.828372"
     inkscape:cy="30.274925"
     inkscape:document-units="mm"
     inkscape:current-layer="layer1"
     showgrid="true"
     units="px"
     inkscape:snap-bbox="true"
     inkscape:window-width="1366"
     inkscape:window-height="713"
     inkscape:window-x="0"
     inkscape:window-y="25"
     inkscape:window-maximized="1"
     inkscape:snap-global="true">
    <inkscape:grid
       type="xygrid"
       id="grid14369"
       spacingx="1.0583333"
       spacingy="1.0583333" />
  </sodipodi:namedview>
  <metadata
     id="metadata5">
    <rdf:RDF>
      <cc:Work
         rdf:about="">
        <dc:format>image/svg+xml</dc:format>
        <dc:type
           rdf:resource="http://purl.org/dc/dcmitype/StillImage" />
        <dc:title></dc:title>
      </cc:Work>
    </rdf:RDF>
  </metadata>
  <g
     inkscape:groupmode="layer"
     id="layer2"
     inkscape:label="Background"
     transform="translate(0,12.7)"
     style="display:inline">
    <rect
       style="opacity:1;fill:#808080;fill-opacity:0.98039216;stroke:none;stroke-width:0.52916676;stroke-linecap:round;stroke-linejoin:round;stroke-miterlimit:4;stroke-dasharray:none;stroke-dashoffset:0;stroke-opacity:0.98039216"
       id="rect14409"
       width="8.4666681"
       height="8.4666681"
       x="1.7838136e-07"
       y="-12.7" />
    <rect
       style="display:inline;opacity:1;fill:#c0c0c0;fill-opacity:0.98039216;stroke:none;stroke-width:0.52916682;stroke-linecap:round;stroke-linejoin:round;stroke-miterlimit:4;stroke-dasharray:none;stroke-dashoffset:0;stroke-opacity:0.98039216"
       id="rect14409-6-8"
       width="8.4666691"
       height="8.4666691"
       x="-2.6826417e-06"
       y="-4.2333331" />
  </g>
  <g
     inkscape:label="Objects"
     inkscape:groupmode="layer"
     id="layer1"
     transform="translate(0,-280.06667)"
     style="display:inline">
    <path
       inkscape:connector-curvature="0"
       d="M 6.0436385,290.73706 H 2.4230252 c -0.45954,0 -0.8355267,0.37598 -0.8355267,0.83552 v 1.94956 c 0,0.45954 0.3759867,0.83553 0.8355267,0.83553 h 0.2785083 v 0.83552 l 0.8355258,-0.83552 h 2.5065792 c 0.45954,0 0.8355267,-0.37599 0.8355267,-0.83553 v -1.94956 c 0,-0.45954 -0.3759867,-0.83552 -0.8355267,-0.83552 z m 0.2785083,2.78508 c 0,0.15096 -0.1275566,0.27852 -0.2785083,0.27852 H 2.4230252 c -0.1509517,0 -0.27851,-0.12756 -0.27851,-0.27852 v -1.94956 c 0,-0.15095 0.1275583,-0.27851 0.27851,-0.27851 h 3.6206133 c 0.1509517,0 0.2785083,0.12756 0.2785083,0.27851 z m -3.342105,-0.41776 c -0.3074741,0 -0.5570166,-0.24955 -0.5570166,-0.55702 0,-0.30748 0.2495425,-0.55702 0.5570166,-0.55702 0.3074734,0 0.5570175,0.24954 0.5570175,0.55702 0,0.30747 -0.2495441,0.55702 -0.5570175,0.55702 z m 0,-0.83552 c -0.1537366,0 -0.2785083,0.12476 -0.2785083,0.2785 0,0.15374 0.1247717,0.27851 0.2785083,0.27851 0.1537367,0 0.2785092,-0.12477 0.2785092,-0.27851 0,-0.15374 -0.1247725,-0.2785 -0.2785092,-0.2785 z m 1.2532892,0.83552 c -0.3074733,0 -0.5570167,-0.24955 -0.5570167,-0.55702 0,-0.30748 0.2495434,-0.55702 0.5570167,-0.55702 0.3074742,0 0.5570183,0.24954 0.5570183,0.55702 0,0.30747 -0.2495441,0.55702 -0.5570183,0.55702 z m 0,-0.83552 c -0.1537367,0 -0.2785083,0.12476 -0.2785083,0.2785 0,0.15374 0.1247716,0.27851 0.2785083,0.27851 0.1537375,0 0.27851,-0.12477 0.27851,-0.27851 0,-0.15374 -0.1247725,-0.2785 -0.27851,-0.2785 z m 1.25329,0.83552 c -0.3074742,0 -0.5570167,-0.24955 -0.5570167,-0.55702 0,-0.30748 0.2495425,-0.55702 0.5570167,-0.55702 0.3074733,0 0.5570175,0.24954 0.5570175,0.55702 0,0.30747 -0.2495442,0.55702 -0.5570175,0.55702 z m 0,-0.83552 c -0.1537367,0 -0.2785083,0.12476 -0.2785083,0.2785 0,0.15374 0.1247716,0.27851 0.2785083,0.27851 0.1537367,0 0.2785092,-0.12477 0.2785092,-0.27851 0,-0.15374 -0.1247725,-0.2785 -0.2785092,-0.2785 z"
       id="path2-3"
       style="fill:#ffffff;stroke-width:0.27850878;filter:url(#filter15029)" />
    <path
       inkscape:connector-curvature="0"
       d="m 6.2912042,282.32297 h -4.11574 c -0.3245558,0 -0.5879633,0.26341 -0.5879633,0.58797 v 2.64583 c 0,0.32455 0.2634075,0.58796 0.5879633,0.58796 h 4.11574 c 0.324555,0 0.5879634,-0.26341 0.5879634,-0.58796 v -2.64583 c 0,-0.32456 -0.2634084,-0.58797 -0.5879634,-0.58797 z m -2.8469166,2.15078 0.4709583,0.41156 c 0.089667,0.0782 0.2031417,0.11701 0.3180883,0.11701 0.1149467,0 0.2284234,-0.0391 0.3180875,-0.11701 l 0.4709592,-0.41156 -0.010892,0.0109 1.0718567,1.07186 h -3.700048 l 1.0718566,-1.07186 z m -1.2688234,0.87517 v -1.98525 l 1.0589209,0.92634 z m 3.0568184,-1.05891 1.0589216,-0.92634 v 1.98438 z m 1.0589216,-1.37907 v 0.0618 l -1.9332225,1.69157 c -0.066733,0.0582 -0.1825625,0.0582 -0.2492958,0 l -1.9332217,-1.69164 v -0.0618 z"
       id="path2"
       style="display:inline;fill:#ffffff;stroke-width:0.29398146;filter:url(#filter15029)" />
  </g>
</svg>
